<svg width="390" height="791" viewBox="0 0 390 791" fill="none" xmlns="http://www.w3.org/2000/svg">
<path d="M120.101 675.726C121.135 673.986 122.168 672.408 122.386 672.272C122.63 672.136 123.12 672.027 123.5 672C123.881 672 125.322 672.381 126.709 672.816C128.069 673.278 129.701 673.877 130.299 674.176C131.06 674.557 131.441 674.965 131.55 675.482C131.658 675.89 131.604 677.195 131.441 678.392C131.278 679.589 130.951 681.547 130.68 682.744C130.408 683.968 130.272 685.246 130.38 685.681C130.489 686.089 130.815 686.525 131.115 686.688C131.414 686.851 131.93 686.878 132.284 686.769C132.61 686.688 133.372 686.144 133.97 685.6C134.568 685.029 135.547 684.267 136.145 683.859C136.744 683.451 137.913 682.635 138.729 682.037C139.762 681.302 140.496 680.976 141.122 680.976C141.829 680.976 142.209 681.221 143.107 682.281C143.732 682.989 144.466 684.049 144.766 684.648C145.201 685.491 145.282 686.062 145.174 687.096C145.092 687.885 144.793 688.728 144.467 689.136C144.167 689.516 143.46 690.523 142.944 691.393C142.427 692.236 141.992 693.188 141.992 693.488C141.992 693.787 142.155 694.032 142.345 694.032C142.509 694.032 144.222 693.297 146.152 692.4C148.056 691.502 149.824 690.768 150.096 690.768C150.34 690.795 150.83 690.931 151.156 691.121C151.482 691.312 152.679 692.835 153.794 694.494C155.507 697.051 155.86 697.758 155.86 698.656C155.86 699.499 155.67 699.961 154.99 700.695C154.501 701.239 152.679 702.735 150.966 704.041C148.899 705.619 147.838 706.598 147.838 706.924C147.838 707.359 148.518 707.686 151.782 708.747C153.957 709.481 155.942 710.052 156.214 710.079C156.459 710.079 157.084 710.46 158.444 711.793L158.254 713.996C158.145 715.22 157.737 717.75 157.356 719.654C156.975 721.585 156.486 723.516 156.268 723.951C156.024 724.441 155.561 724.821 155.126 724.93C154.691 725.039 153.576 725.039 152.597 724.93C151.618 724.849 149.851 724.577 148.654 724.332C147.458 724.087 145.31 723.652 143.895 723.353C142.481 723.053 139.844 722.509 138.049 722.129C136.254 721.748 134.187 721.34 133.426 721.204C132.692 721.068 131.876 720.905 131.658 720.823C131.441 720.742 130.326 720.524 129.211 720.306L129.211 720.306C128.096 720.089 125.948 719.681 124.452 719.354C122.957 719.055 120.564 718.538 119.15 718.239C117.736 717.94 115.968 717.559 115.207 717.423C114.472 717.287 112.378 716.852 110.584 716.471C108.789 716.09 106.722 715.655 105.961 715.519C105.227 715.383 103.133 714.948 101.338 714.567C99.5432 714.186 95.9265 713.452 93.316 712.935C90.7054 712.418 87.2791 711.738 85.7018 711.439C84.1246 711.113 81.922 710.678 80.8071 710.46C79.6921 710.215 78.5772 709.998 78.3597 709.943C78.1421 709.862 77.7342 709.399 77.4895 708.855C77.2175 708.339 77 707.387 77 706.734C77 706.108 77.2447 704.476 77.5711 703.143C77.8974 701.811 78.2509 700.233 78.3869 699.662C78.55 699.009 78.9035 698.492 79.393 698.193C80.0456 697.785 80.4264 697.758 83.1185 698.057C84.7773 698.248 86.6536 698.465 87.3334 698.574C88.258 698.683 88.6659 698.601 89.0466 698.275C89.4545 697.894 89.4817 697.731 89.1282 696.806C88.9107 696.262 88.3124 695.011 87.7957 694.032C87.2791 693.052 86.6536 691.584 86.3817 690.768C86.0554 689.707 85.9738 688.945 86.1097 688.184C86.2457 687.449 86.6808 686.742 87.4422 685.953C88.0405 685.328 90.1887 683.641 92.1738 682.227C95.0835 680.133 95.9809 679.616 96.7151 679.616C97.2862 679.616 97.83 679.806 98.0748 680.078C98.2923 680.35 99.4344 681.982 100.577 683.696C101.746 685.409 102.806 686.824 102.97 686.824C103.106 686.824 103.405 686.334 103.595 685.736C103.813 685.137 104.085 682.798 104.22 680.568C104.384 678.31 104.656 675.971 104.873 675.318C105.091 674.693 105.553 673.986 105.906 673.768C106.26 673.523 108.028 673.197 110.312 672.952C113.711 672.571 114.173 672.571 114.744 672.952C115.071 673.17 115.478 673.659 115.614 674.04C115.778 674.421 115.886 675.672 115.886 676.814C115.886 677.984 115.995 679.344 116.158 679.806C116.294 680.296 116.512 680.704 116.648 680.704C116.757 680.731 117.164 680.323 117.545 679.833C117.926 679.344 119.068 677.494 120.101 675.726Z" fill="#469E9E"/>
<path d="M93.2962 2.96172C93.3627 1.797 93.5623 1.43094 94.4939 0.798666C95.126 0.366055 95.9911 0 96.4236 0C96.8561 0 97.8874 0.266222 98.7857 0.599C99.6508 0.931778 101.447 1.93011 102.811 2.82861C104.176 3.76039 105.872 5.15805 106.604 5.99C107.303 6.82194 108.201 8.05322 108.534 8.71878C108.933 9.55072 109.166 10.6822 109.166 11.98C109.166 13.2446 108.933 14.5091 108.501 15.4742C108.135 16.3061 107.203 17.6039 106.438 18.4026C105.639 19.2013 103.743 20.4991 102.179 21.331C100.25 22.3294 99.3181 22.9949 99.2515 23.4608C99.185 23.9267 99.6508 24.5257 100.682 25.3577C101.514 26.0565 102.512 27.2545 102.911 28.0199C103.477 29.118 103.643 30.0165 103.643 31.9467C103.61 33.8435 103.444 34.7753 102.911 35.8402C102.512 36.6388 101.614 37.8368 100.948 38.5024C100.25 39.1679 98.453 40.2994 96.9559 40.9982C94.9929 41.8967 94.1945 42.4292 94.1945 42.8285C94.2277 43.1613 95.3257 44.4591 96.6565 45.7569C98.819 47.8202 99.185 48.3193 99.684 50.083C100.15 51.7136 100.183 52.3792 99.8836 53.5772C99.684 54.4091 99.0186 55.8068 98.4198 56.7053C97.8542 57.6038 96.7563 58.8684 96.0243 59.5007C95.2924 60.0997 93.396 61.2311 91.799 61.9965C90.1688 62.7619 88.8047 63.5938 88.7049 63.7935C88.6051 64.0264 89.337 65.1579 90.3351 66.2893C91.3 67.454 92.3646 68.885 92.664 69.4507C92.9967 70.1828 93.1963 71.4141 93.1963 73.0447C93.1963 75.1412 93.03 75.84 92.2315 77.4374C91.6992 78.5023 90.7676 79.8334 90.1355 80.4324C89.5366 81.0314 88.1393 81.9299 87.0414 82.429C85.2448 83.261 84.7125 83.3608 81.3855 83.3608C78.2581 83.3608 77.5261 83.2277 76.3284 82.5954C75.4634 82.1628 74.6982 81.4307 74.3655 80.7651C74.066 80.1994 73.933 79.3675 74.0328 78.9349C74.1326 78.5355 74.4653 77.9698 74.7647 77.7036C75.1639 77.3375 76.0955 77.2044 78.6573 77.2044C81.5185 77.2044 82.2838 77.1046 83.548 76.4723C84.8788 75.7735 85.1117 75.5073 85.5775 73.8766C86.0765 72.1795 86.0765 71.9133 85.5775 70.5821C85.145 69.4174 84.3798 68.5189 81.9178 66.4224C80.221 64.9249 78.6573 63.4607 78.5242 63.1279C78.3579 62.8284 78.2248 62.1629 78.2248 61.6304C78.2248 61.1313 78.3579 60.5655 78.491 60.3659C78.624 60.1662 79.1896 59.7669 79.7219 59.4674C80.2543 59.2011 81.9178 58.8018 83.3817 58.6022C84.8455 58.3692 86.6421 57.9366 87.3741 57.6038C88.106 57.271 89.2372 56.4391 89.9026 55.707C90.5347 55.0081 91.2667 53.8102 91.4996 53.078C91.7325 52.3459 91.8323 51.2478 91.7325 50.6488C91.5994 49.9167 91.0338 49.1845 89.9691 48.2528C89.0709 47.5206 87.6402 46.5889 86.7087 46.123C85.8104 45.6904 84.6459 44.925 84.1469 44.4591C83.5147 43.8934 83.2153 43.2611 83.2153 42.5955C83.2153 41.9633 83.548 41.2644 84.1469 40.6322C84.6459 40.133 85.7106 39.5007 86.5423 39.2678C87.3741 39.0348 89.1707 38.5024 90.5347 38.0698C92.4311 37.504 93.2961 37.0049 94.2277 36.0398C94.8931 35.341 95.5253 34.2428 95.6583 33.6105C95.7914 32.9783 95.8247 32.0798 95.7249 31.6139C95.6251 31.148 95.0262 30.316 94.4606 29.7503C93.8617 29.1846 92.3313 28.153 91.0338 27.5207C89.7363 26.8552 88.4054 25.9899 88.0395 25.5906C87.5737 25.1247 87.3741 24.4259 87.3741 23.4608C87.3741 22.4958 87.607 21.7969 88.0395 21.2978C88.4054 20.8984 89.1707 20.3327 89.703 20.0665C90.2686 19.767 92.1317 19.2013 93.8618 18.7687C95.5918 18.3028 97.6213 17.6039 98.3532 17.1713C99.0852 16.7387 100.017 16.0066 100.383 15.574C100.782 15.1747 101.248 14.3427 101.414 13.8103C101.68 13.0782 101.647 12.4459 101.314 11.4808C101.048 10.7487 100.349 9.65055 99.7838 9.01828C99.185 8.41928 97.588 7.42094 96.2905 6.78866C94.9597 6.15639 93.6954 5.35772 93.5291 4.99167C93.3627 4.62561 93.2296 3.69383 93.2962 2.96172Z" fill="#469E9E"/>
<path d="M-21.3709 44.4961C-16.3656 39.628 -9.46624 33.0019 -6.15187 29.7565C-1.41705 25.1589 0.273952 23.8742 1.62676 24.0095C3.18248 24.2123 3.31776 24.4151 3.11485 27.2549C2.97956 28.9452 2.16788 34.219 1.28856 39.0871C0.0710335 45.7131 -0.131887 48.0119 0.476875 48.35C0.950356 48.5528 7.71438 45.5779 15.493 41.6564C24.6921 37.1263 30.3062 34.6923 31.3885 34.8275C32.4707 34.9627 33.1471 35.5036 33.2824 36.3826C33.4177 37.1263 31.7267 41.8592 29.4945 46.8625C27.2624 51.8659 24.2862 58.7624 22.9334 62.0754C21.5806 65.3884 20.7013 68.2957 20.9042 68.4986C21.1072 68.7014 28.0741 66.6054 36.3262 63.9009C45.0518 60.9936 52.2217 59.0328 53.3716 59.168C54.9949 59.3033 55.4008 59.6413 55.2655 60.8583C55.1302 61.7373 54.1156 63.8333 52.8981 65.5912C51.7482 67.4168 44.5783 76.8149 37.0026 86.5511C29.4269 96.355 22.7982 104.468 22.257 104.671C21.7159 104.874 20.8366 104.807 20.2955 104.468C19.7543 104.198 9.20247 95.7465 -3.24334 85.6722C-15.6215 75.5303 -27.0527 65.8617 -28.6084 64.1714C-30.2318 62.481 -31.7199 60.2498 -31.9228 59.168C-32.1257 58.1538 -31.9228 56.4635 -31.3817 55.3817C-30.9082 54.2999 -26.3763 49.4318 -21.3709 44.4961Z" fill="#FFBE4D"/>
<path d="M368.875 18.5584C374.307 16.8143 379.069 15.3051 379.438 15.2044C379.806 15.1038 380.645 15.0367 381.282 15.0032C381.919 14.9697 382.791 15.2044 383.227 15.4728C383.629 15.7411 384.199 16.4454 384.467 16.982C384.736 17.5522 385.205 19.5981 385.473 21.6104C385.742 23.5892 386.882 33.3827 387.988 43.4109C389.095 53.4055 390 62.0922 390 62.6959C390 63.2661 389.765 64.1045 389.497 64.5405C389.061 65.1778 388.692 65.2784 386.982 65.2784C385.876 65.2784 382.154 64.8089 378.7 64.2722C373.268 63.4002 372.329 63.1654 371.792 62.4947C371.323 61.9245 371.189 61.1531 371.222 58.906C371.222 57.3296 371.457 53.808 371.725 51.0243C371.994 48.2741 372.228 43.6792 372.228 40.8954C372.228 36.636 372.128 35.7304 371.725 35.5963C371.424 35.4956 367.769 37.7428 363.108 40.8284C358.615 43.8133 353.685 46.8319 352.109 47.6033C350.366 48.4417 348.622 49.0455 347.583 49.1125C346.107 49.2467 345.772 49.1796 344.833 48.3076C344.23 47.771 342.587 45.6915 341.145 43.6456C339.703 41.6333 337.825 38.816 336.953 37.4409C336.081 36.0658 335.243 34.4559 335.109 33.8522C334.874 32.9131 334.975 32.6783 335.847 31.9069C336.383 31.4039 338.898 30.0958 341.379 28.989C343.861 27.8822 348.857 25.8028 352.445 24.3942C356.033 22.952 363.443 20.3359 368.875 18.5584Z" fill="#FFBDC9"/>
<path d="M377.131 123.725C378.836 123.44 381.599 123.417 383.298 123.71C384.998 124.002 386.925 124.455 387.644 124.659C388.338 124.927 390.78 126.302 392.985 127.731C395.227 129.247 398.189 131.909 399.645 133.775C401.062 135.552 402.721 138.583 403.323 140.408C403.987 142.258 404.583 145.604 404.738 147.837C404.892 150.07 404.541 153.992 403.909 156.574C403.228 159.283 401.648 163.384 400.141 166.354C398.683 169.198 396.298 173.133 394.791 175.161C393.285 177.189 390.424 180.29 388.476 182.148C386.528 184.006 384.002 185.858 382.827 186.275C381.627 186.755 380.486 186.895 380.219 186.647C380.015 186.424 379.598 183.365 379.25 179.753C378.743 173.544 378.563 173.257 376.282 171.654C374.888 170.755 371.883 168.582 369.587 166.828C367.267 165.137 364.048 162.014 362.476 159.886C360.879 157.822 359.127 154.467 358.599 152.452C357.983 150.475 357.702 147.252 357.854 145.354C358.029 143.393 358.866 140.092 359.717 137.884C360.616 135.549 362.239 132.842 363.711 131.09C365.086 129.591 367.971 127.369 370.142 126.25C372.313 125.13 375.427 124.01 377.131 123.725Z" fill="#54AD7D"/>
<path d="M275.477 9.68526C277.445 9.02969 280.778 8.1556 282.855 7.77319C284.932 7.39078 287.61 7.00837 288.703 7.00837C289.851 6.95374 291.272 7.17226 291.873 7.50004C292.693 7.93708 292.966 8.59265 292.966 10.3408C292.966 11.652 292.474 13.6733 291.873 14.8751C291.272 16.077 290.124 17.8252 287.774 20.4474L290.069 20.8299C291.381 20.9937 293.731 21.8132 295.261 22.6327C296.846 23.3975 299.36 25.3096 300.836 26.8392C302.257 28.3689 304.224 31.2096 305.208 33.1763C306.738 36.3995 306.902 37.1643 306.902 41.9172C306.902 46.67 306.738 47.4349 305.154 50.6581C304.224 52.6248 302.421 55.3563 301.219 56.7767C299.961 58.2517 298.978 59.6174 298.978 59.9452C298.978 60.273 299.142 60.4915 299.36 60.4915C299.634 60.4369 300.891 61.4202 302.257 62.5675C303.623 63.7147 305.154 65.6814 305.645 66.9379C306.192 68.1944 306.52 69.7241 306.356 70.325C306.192 70.9259 305.427 71.7454 304.607 72.1824C303.733 72.5648 300.617 73.7121 297.611 74.6408C294.606 75.6241 290.288 76.5529 288.047 76.7168C284.112 77.0445 283.894 77.0445 282.473 75.6241C281.598 74.8047 280.942 73.7121 280.942 73.1658C280.942 72.6741 281.216 71.363 281.544 70.325C281.926 69.287 283.074 67.1018 284.167 65.5175C285.26 63.9332 286.025 62.5675 285.861 62.4582C285.697 62.4036 284.003 61.5841 282.035 60.6554C279.959 59.7267 277.39 57.9239 275.805 56.3396C274.111 54.7007 272.362 52.0784 271.16 49.5654C269.575 46.1784 269.192 44.7033 269.028 41.0977C268.864 37.656 269.028 36.0717 269.902 33.7226C270.558 32.0837 272.143 29.4068 273.51 27.8225C274.876 26.2929 276.024 24.9271 276.024 24.8179C276.024 24.7632 274.985 24.4901 273.728 24.2716C272.417 24.0531 270.285 23.2882 268.973 22.6327C267.607 21.9771 265.967 20.5567 265.257 19.5187C264.547 18.4808 264 17.2243 264 16.7872C264 16.3502 264.547 15.4214 265.202 14.8205C265.913 14.1649 267.662 13.0177 269.192 12.2529C270.668 11.5427 273.51 10.3955 275.477 9.68526Z" fill="#E56A40"/>
<path d="M43.8611 155.758C41.8319 154.676 39.3968 154 37.7735 154C36.2854 154 34.1885 154.541 33.0386 155.285C31.8888 155.961 29.4537 157.854 27.6274 159.544C25.7335 161.167 23.5014 163.06 22.5544 163.669C21.6074 164.345 20.2546 164.818 19.5106 164.818C18.7665 164.818 16.1286 163.601 13.5583 162.114C10.8526 160.491 8.14703 159.409 6.79423 159.409C5.44142 159.409 3.61513 160.085 1.92412 161.37C0.436035 162.452 -2.26957 164.886 -4.1635 166.779C-6.46327 169.145 -8.08664 170.227 -9.23652 170.227C-10.1835 170.159 -12.7538 168.942 -14.9859 167.455C-18.0298 165.427 -19.7208 164.75 -21.75 164.75C-23.7115 164.75 -25.3349 165.359 -27.4994 166.914C-29.1904 168.131 -32.4371 170.768 -34.8045 172.864C-37.172 174.96 -39.0659 177.124 -38.9982 177.664C-38.9982 178.205 -37.8484 180.437 -36.4279 182.6C-35.0751 184.696 -33.5194 186.589 -33.1135 186.792C-32.6401 186.995 -31.6931 186.86 -31.0843 186.522C-30.4079 186.184 -27.4994 184.223 -24.6585 182.127C-21.75 180.031 -18.8414 178.341 -18.2327 178.341C-17.5563 178.341 -15.6623 179.287 -13.9713 180.369C-12.2803 181.518 -9.71 182.6 -8.22192 182.803C-6.46327 183.073 -4.8399 182.871 -3.4871 182.194C-2.33722 181.654 0.233116 179.693 2.26232 177.867C4.29153 175.974 6.65894 174.149 7.47063 173.743C8.82343 173.067 9.83804 173.337 14.5729 175.636C17.6843 177.124 21.2016 178.341 22.3515 178.341C23.569 178.341 25.26 178.002 26.0717 177.597C26.951 177.191 29.3184 175.366 31.3476 173.608C33.3768 171.85 35.7443 170.092 36.5559 169.686C37.4353 169.213 38.6528 169.01 39.2616 169.145C39.938 169.348 41.6966 170.565 43.1847 171.85C44.6728 173.202 46.3638 174.284 46.9049 174.284C47.446 174.284 49.6782 172.323 51.775 169.889C54.0748 167.32 55.5629 165.088 55.3599 164.48C55.157 163.939 53.2631 162.114 51.1662 160.491C49.0018 158.868 45.755 156.705 43.8611 155.758Z" fill="#388EBF"/>
<path fill-rule="evenodd" clip-rule="evenodd" d="M61.0583 106.004C63.2579 105.96 66.2053 106.268 67.657 106.62C69.1087 106.972 71.7482 108.027 73.5518 108.95C75.7953 110.05 77.7749 111.545 79.8865 113.656C82.0861 115.898 83.4058 117.701 84.6376 120.251C85.5614 122.186 86.6611 125.045 87.0571 126.628C87.541 128.606 87.7169 130.629 87.5849 133.224C87.409 135.774 87.0131 137.929 86.1772 140.039C85.5614 141.71 84.4616 143.821 82.526 146.196L80.6784 144.876C79.6666 144.129 78.8747 143.337 78.8747 143.117C78.8747 142.854 79.5346 141.666 80.2824 140.479C81.0303 139.248 81.9101 137.489 82.262 136.522C82.57 135.554 82.8339 133.487 82.8339 131.904C82.8339 130.321 82.57 128.167 82.218 127.067C81.9101 125.968 81.0743 123.989 80.4144 122.67C79.7105 121.351 78.1709 119.196 76.9391 117.921C75.7074 116.602 73.8157 115.019 72.716 114.315C71.6162 113.612 69.5046 112.644 67.9649 112.16C66.2053 111.545 64.0937 111.237 62.0261 111.237C60.3105 111.237 57.671 111.457 56.2193 111.721C54.7676 111.985 52.6121 112.732 51.4243 113.348C50.2365 114.007 48.4329 115.502 47.4651 116.646C46.4533 117.789 45.3975 118.756 45.0896 118.712C44.8256 118.712 43.9458 118.185 43.198 117.481C42.0982 116.558 41.8782 116.03 42.0542 115.195C42.1862 114.579 43.066 113.304 43.9898 112.336C44.9576 111.369 47.0692 109.874 48.7848 109.038C50.4565 108.203 53.008 107.191 54.4597 106.752C55.9994 106.356 58.7708 106.004 61.0583 106.004ZM63.4778 112.908C64.5776 113.04 66.3373 113.436 67.437 113.831C68.5368 114.227 70.5164 115.283 71.8361 116.162C73.1559 117.041 75.0035 118.537 75.8833 119.548C76.8071 120.559 78.2588 122.802 79.0947 124.517C79.9305 126.32 80.7663 128.782 80.8983 130.145C81.0743 131.465 80.9423 133.531 80.6784 134.763C80.4144 135.95 79.6226 137.885 78.8747 139.028C77.9509 140.523 77.2471 141.139 76.5432 141.139C76.0153 141.183 75.3114 140.875 75.0035 140.479C74.5636 139.951 74.6956 139.292 75.5754 136.961C76.2353 135.246 76.6752 133.18 76.6752 131.772C76.6752 130.057 76.3232 128.782 75.2674 126.672C74.4756 125.089 73.1119 123.242 72.2761 122.582C71.4402 121.878 69.3726 120.603 67.657 119.768C65.8094 118.844 63.3459 118.053 61.4982 117.745C59.2547 117.393 57.759 117.393 55.9994 117.789C54.6796 118.053 52.744 118.844 51.6882 119.592C50.6765 120.295 49.4007 120.867 48.9168 120.779C48.3889 120.735 47.7291 120.339 47.4651 119.9C47.0692 119.24 47.2891 118.8 48.9608 117.217C50.1486 116.074 51.9962 114.931 53.5799 114.359C55.0316 113.787 57.4071 113.216 58.8588 113.04C60.3105 112.864 62.3781 112.82 63.4778 112.908ZM58.1989 119.196C59.2987 119.152 61.4543 119.504 63.0379 119.988C64.6216 120.471 66.9971 121.615 68.3169 122.538C69.6806 123.505 71.4842 125.352 72.496 126.803C74.0797 129.09 74.2556 129.662 74.3876 132.476C74.4756 135.07 74.3436 135.906 73.6398 137.049C73.1119 137.885 72.364 138.5 71.8361 138.5C71.3522 138.5 70.7804 138.149 70.5604 137.709C70.3405 137.269 70.3404 136.346 70.6044 135.422C70.8244 134.587 70.8683 133.268 70.6924 132.564C70.5604 131.816 70.0765 130.541 69.6366 129.706C69.1967 128.87 68.0529 127.331 67.0411 126.276C66.0733 125.264 64.7096 124.165 64.0057 123.813C63.3459 123.462 61.9382 123.066 60.8384 122.89C59.5626 122.714 58.1109 122.846 56.6592 123.286C55.4275 123.681 53.9758 123.989 53.3599 123.989C52.744 123.989 51.9082 123.637 51.4683 123.198C51.0284 122.802 50.7204 122.23 50.8084 121.966C50.8524 121.659 51.6003 121.087 52.4361 120.691C53.3159 120.251 54.5037 119.724 55.1195 119.548C55.7354 119.372 57.0991 119.196 58.1989 119.196Z" fill="#388EBF"/>
<path d="M382.97 210.604C384.366 210.003 386.796 209.359 388.329 209.19C389.872 208.954 393.076 209.048 395.492 209.361C399.167 209.94 400.45 210.484 403.841 212.867C406.606 214.876 408.414 216.873 409.85 219.494C410.969 221.519 412.098 224.777 412.338 226.731C412.589 228.619 412.39 232.489 411.958 235.227C411.527 237.966 408.236 249.288 404.632 260.425C401.028 271.561 397.611 282.385 396.996 284.547C396.449 286.719 395.426 289.296 394.868 290.235C394.221 291.297 393.071 292.074 392.038 292.116C391.071 292.169 387.628 291.421 384.417 290.505C381.217 289.521 376.543 287.895 374.021 286.95C371.499 286.005 367.958 284.146 366.101 282.895C364.254 281.578 361.876 279.286 360.873 277.828C359.871 276.369 358.737 274.001 358.269 272.626C357.685 270.686 357.765 268.44 358.726 262.774C359.435 258.71 360.825 252.495 361.872 248.895C362.852 245.285 365.31 237.938 367.309 232.64C369.252 227.266 371.757 221.363 372.874 219.486C373.925 217.598 376.104 215.067 377.605 213.797C379.163 212.605 381.575 211.206 382.97 210.604Z" fill="#FFBDC9"/>
<path d="M15.6813 717.651C16.3664 715.939 17.7365 713.885 18.7642 713.086C19.9059 712.287 21.2761 711.83 21.9611 712.059C22.532 712.287 24.1305 713.999 25.3865 715.825C26.6425 717.651 28.4693 722.445 29.2686 726.554C30.182 730.662 31.2097 734.429 31.7806 735.113C32.2373 735.798 33.1507 734.543 33.8358 732.26C34.5208 730.092 36.5761 725.869 38.5171 722.901C41.1432 718.793 42.6275 717.423 44.797 717.423C46.6238 717.423 48.1082 718.336 48.9074 719.934C49.7067 721.532 50.0492 725.298 49.5925 729.407C49.25 733.173 48.6791 737.168 48.3365 738.195C47.8798 739.451 48.2223 740.249 49.1358 740.249C49.8208 740.249 52.1044 738.766 53.9313 736.825C55.7582 734.885 59.0693 732.603 61.1246 731.69C63.0656 730.776 65.8059 730.206 67.0619 730.548C68.3179 730.891 69.5738 732.146 69.9164 733.402C70.2589 734.657 69.4597 738.081 68.0895 741.048C66.8335 744.13 63.7507 748.924 61.2388 752.005C58.841 754.973 57.1283 757.369 57.6992 757.483C58.1559 757.598 62.3806 757.483 67.0619 757.369C72.7709 757.255 76.9954 757.712 79.9641 758.967C83.5036 760.451 84.1887 761.25 83.9604 763.875C83.732 766.158 82.4761 767.527 78.4798 769.467C75.6253 770.837 69.1171 773.234 63.8649 774.717C58.7268 776.201 54.5022 777.571 54.5022 777.913C54.5022 778.256 57.4708 780.31 61.1246 782.707C64.6641 784.989 69.8022 789.212 72.5425 792.066C76.082 795.946 77.2238 798.115 77.1096 800.511C76.7671 803.136 76.1962 803.593 72.7708 803.935C70.6014 804.164 66.2626 803.365 63.0656 802.223C59.9828 800.968 54.388 798 50.7343 795.604C47.0806 793.093 43.8835 791.267 43.541 791.609C43.3126 791.951 44.3402 796.174 45.9388 800.968C47.5373 806.104 48.7932 812.495 48.7932 816.147C48.7932 821.626 48.4507 822.653 45.8246 824.479C43.0843 826.305 42.7418 826.305 39.8873 824.479C38.1746 823.452 35.2059 819.571 33.1507 815.919C31.0955 812.267 28.8119 806.104 28.0126 802.109C27.2134 798.229 26.2999 795.033 25.9574 794.919C25.6149 794.919 22.7604 799.941 19.4492 806.104C16.138 812.267 12.1418 818.544 10.5432 820.142C8.14548 822.425 7.23206 822.767 5.63356 821.74C4.14923 820.827 3.57833 818.544 3.34997 813.18C3.23579 809.185 3.80665 803.022 4.72009 799.598C5.7477 796.174 6.88953 792.066 7.34624 790.468C8.03132 787.843 7.4604 788.071 1.29473 792.865C-2.359 795.832 -7.61125 799.256 -10.2374 800.625C-12.9777 801.995 -16.2889 802.908 -17.5448 802.68C-18.915 802.566 -20.6277 801.539 -21.3127 800.397C-22.3403 798.914 -21.9978 797.316 -19.7142 793.207C-18.1157 790.239 -14.2336 785.56 -11.1508 782.593C-7.95377 779.739 -3.61498 775.973 2.55069 771.408L-8.29631 768.783C-14.2336 767.299 -20.7418 765.473 -22.5687 764.446C-24.3956 763.532 -26.9075 761.935 -28.0493 760.907C-29.1911 759.88 -30.1045 758.168 -29.9903 757.141C-29.9903 755.886 -28.2777 754.288 -25.6515 753.261C-23.1396 752.119 -16.6314 751.092 -9.66647 750.636C-3.27244 750.293 1.97981 749.722 1.97981 749.38C1.97981 749.038 0.152952 745.956 -1.90227 742.532C-3.9575 739.108 -6.58362 733.744 -7.72541 730.548C-9.4381 725.641 -9.55229 724.499 -8.18214 722.331C-7.38288 720.847 -5.67021 719.706 -4.30006 719.706C-3.04409 719.706 -0.760504 720.505 0.838003 721.532C2.43651 722.559 6.09027 725.869 14.5395 733.972V727.353C14.5395 723.814 15.1104 719.477 15.6813 717.651Z" fill="#FFBDC9"/>
<path d="M353.117 727.098C354.293 726.774 355.671 726.409 356.157 726.288C356.684 726.166 358.548 726.044 360.331 726.004C362.48 725.963 364.668 726.247 366.816 726.774C368.599 727.261 371.315 728.274 372.896 729.125C374.841 730.139 376.827 731.72 379.178 734.071C381.934 736.787 383.028 738.287 384.527 741.165C385.541 743.152 386.838 746.354 387.446 748.26C388.013 750.165 388.783 753.084 389.188 754.746C389.675 756.935 389.837 759.732 389.877 764.88C389.877 770.961 389.756 772.502 388.945 775.826C388.418 777.934 387.567 780.853 387.081 782.312C386.594 783.771 385.662 786.041 385.014 787.379C384.406 788.717 382.987 791.352 381.893 793.257C380.799 795.163 378.732 798.325 377.273 800.352C375.814 802.379 373.504 805.297 372.126 806.878C370.748 808.459 369.167 810.081 368.559 810.446C367.91 810.811 367.019 811.094 366.532 811.094C366.006 811.094 364.79 810.567 363.776 809.919C362.763 809.27 359.764 806.595 357.049 803.919C354.333 801.284 351.82 798.487 351.456 797.717C350.969 796.825 350.848 795.933 351.01 795.284C351.172 794.717 352.712 792.244 354.455 789.812C356.197 787.379 358.629 783.609 359.886 781.501C361.142 779.393 363.169 775.42 364.384 772.664C365.6 769.948 366.897 766.38 367.221 764.759C367.586 763.056 367.748 761.313 367.546 760.624C367.384 759.975 366.857 758.921 366.33 758.273C365.762 757.583 364.83 757.097 363.898 756.935C363.006 756.773 361.547 756.935 360.534 757.219C359.521 757.543 357.697 758.435 356.481 759.205C355.265 760.016 352.915 762.043 351.334 763.705C349.713 765.367 347.362 767.961 346.106 769.542C344.89 771.123 342.296 774.691 340.432 777.528C338.567 780.407 336.622 783.001 336.135 783.325C335.609 783.65 334.758 783.933 334.19 783.933C333.623 783.933 330.178 782.271 326.49 780.244C322.801 778.218 318.627 776.069 317.208 775.461C315.628 774.812 314.452 774.042 314.169 773.515C313.804 772.745 313.966 772.137 315.303 769.664C316.155 768.042 317.857 764.961 319.113 762.853C320.37 760.745 322.842 756.894 324.625 754.34C326.408 751.786 329.205 747.854 330.907 745.625C332.569 743.395 335.203 740.152 336.784 738.368C338.365 736.625 341.04 734.071 342.742 732.693C344.444 731.355 346.997 729.652 348.416 728.963C349.834 728.233 351.942 727.423 353.117 727.098Z" fill="#FFBE4C"/>
<path d="M266.623 728.157C267.131 727.251 268.158 725.776 268.879 724.924C270.11 723.477 270.369 723.291 271.887 722.865C273.144 722.512 273.921 722.463 274.97 722.677C275.773 722.819 277.257 723.278 278.298 723.664C279.345 724.076 282.106 725.561 284.457 726.992C286.807 728.423 289.824 730.316 291.143 731.189C292.495 732.081 294.595 733.525 295.854 734.387C297.119 735.275 298.884 736.531 299.808 737.204C300.705 737.884 301.828 738.868 302.319 739.409C302.85 739.994 303.317 740.852 303.545 741.663C303.773 742.475 303.821 743.451 303.679 744.253C303.534 744.944 303.116 746.474 302.774 747.671C302.407 748.876 301.855 750.331 301.516 750.934C301.21 751.557 300.684 752.298 300.324 752.625C299.99 752.945 299.406 753.278 298.987 753.396C298.601 753.532 297.866 753.428 297.359 753.231C296.844 753.009 295.516 751.997 294.403 750.954C293.258 749.891 291.626 748.202 290.719 747.185C289.831 746.135 288.3 744.305 287.368 743.097C286.41 741.897 285.136 740.277 284.553 739.509C283.97 738.74 283.342 738.012 283.141 737.899C282.892 737.715 282.749 737.811 282.628 738.184C282.525 738.524 282.974 740.121 284.195 743.564C285.15 746.262 286.615 750.88 287.461 753.891C289.009 759.305 289.009 759.305 288.538 760.143C288.301 760.605 287.832 761.048 287.491 761.143C287.151 761.239 285.917 761.472 284.728 761.665C283.532 761.831 281.398 762.176 279.992 762.401C278.587 762.626 276.95 762.831 276.363 762.855C275.605 762.87 275.15 762.658 274.667 762.144C274.169 761.578 273.929 761.024 273.758 759.913C273.616 759.106 273.45 755.395 273.344 751.696C273.263 747.989 273.163 744.514 273.128 743.987C273.094 743.46 273.065 742.253 273.058 741.323C273.051 740.392 272.926 739.241 272.558 737.932L272.099 738.711C271.847 739.12 271.45 740.221 271.199 741.139C270.948 742.056 270.349 744.852 269.826 747.315C269.337 749.798 268.674 753.374 268.374 755.323C268.066 757.245 267.655 758.999 267.423 759.177C267.224 759.375 266.819 759.545 266.536 759.539C266.285 759.553 264.72 758.806 263.084 757.909C261.448 757.012 259.411 755.692 258.54 755.004C257.479 754.143 256.9 753.487 256.712 752.918C256.528 752.263 256.65 751.692 257.182 750.667C257.555 749.884 258.635 747.293 259.576 744.91C260.517 742.527 261.556 739.89 261.855 739.044C262.162 738.223 263.147 735.799 264.076 733.674C264.978 731.556 266.122 729.088 266.623 728.157Z" fill="#469E9E"/>
<path d="M20.5863 624.452C22.8861 622.423 26.8769 619.719 29.4472 618.366C32.0175 617.082 35.0613 616 36.2112 616C37.3611 616 38.8492 616.338 39.5932 616.811C40.6078 617.555 40.7431 618.231 40.4725 620.733C40.202 622.558 38.1051 627.765 35.1966 633.579C32.0852 639.8 30.5294 643.654 30.9353 644.127C31.2735 644.533 33.5732 647.913 36.0083 651.564C38.4433 655.283 40.8108 659.407 41.2842 660.76C41.7577 662.517 41.8254 663.735 41.3519 664.681C40.946 665.492 39.9991 666.033 38.9845 666.033C38.0375 666.033 35.5348 665.425 33.438 664.681C31.2735 663.937 27.418 662.112 24.78 660.624C22.2097 659.069 19.5717 657.852 19.0306 657.92C18.4895 657.92 16.325 659.61 14.2958 661.639C12.2666 663.735 8.61397 666.777 6.17892 668.467C3.74387 670.09 0.632424 671.713 -0.720382 671.983C-2.74959 672.389 -3.49363 672.186 -4.64351 671.104C-5.86104 669.955 -6.06396 669.279 -5.65812 667.048C-5.45519 665.56 -4.30531 662.179 -3.22306 659.61C-2.07318 657.041 0.158945 652.511 4.82612 644.397L0.902984 639.529C-1.19386 636.825 -3.62891 633.512 -4.44059 632.227C-5.25228 630.942 -6.26688 628.846 -6.67272 627.697C-7.21384 625.804 -7.14621 625.263 -5.99632 624.114C-5.04936 623.167 -3.76419 622.761 -1.73499 622.761C-0.17926 622.761 2.66163 623.167 4.48792 623.64C6.38185 624.114 9.42566 625.331 11.2519 626.345C13.1459 627.359 15.0398 628.17 15.5133 628.17C15.9191 628.17 18.2189 626.48 20.5863 624.452Z" fill="#FFBE4D"/>
<path d="M370.723 685.238C371.483 685.603 372.759 686.059 373.61 686.272C374.431 686.485 375.677 686.667 376.346 686.667C377.014 686.698 378.321 686.576 379.233 686.394C380.145 686.211 381.786 685.664 382.88 685.117C384.035 684.539 385.555 683.445 386.527 682.472C387.469 681.53 388.868 679.645 389.658 678.246C390.63 676.574 391.39 675.602 391.998 675.298C392.606 674.994 393.822 674.842 395.645 674.842C397.621 674.842 398.897 674.659 400.265 674.203C401.329 673.839 402.97 672.987 403.973 672.288C404.945 671.619 406.343 670.221 407.103 669.218C407.833 668.215 408.714 666.634 409.048 665.722C409.413 664.81 409.747 663.077 409.839 661.922C409.96 660.736 409.869 658.912 409.656 657.818C409.443 656.723 409.352 655.477 409.443 654.991C409.595 654.383 410.234 653.775 412.118 652.559C413.516 651.677 415.157 650.339 415.765 649.579C416.373 648.85 417.224 647.482 417.65 646.57C418.075 645.658 418.592 644.016 418.804 642.922C419.078 641.432 419.078 640.399 418.835 638.666C418.622 637.42 418.136 635.626 417.741 634.714C417.346 633.802 416.251 632.221 415.34 631.218C414.215 630.002 412.999 629.09 411.723 628.452C410.659 627.935 409.079 627.327 408.258 627.144C407.407 626.962 406.465 626.628 406.131 626.384C405.584 625.989 405.553 625.685 405.675 623.861C405.736 622.736 405.796 620.7 405.766 619.362C405.736 617.812 405.492 616.261 405.097 615.045C404.733 613.981 404.125 612.583 403.699 611.914C403.274 611.245 402.362 610.151 401.663 609.482C400.933 608.813 399.748 607.932 398.988 607.506C398.229 607.111 396.587 606.533 395.341 606.29C393.913 605.986 392.484 605.865 391.542 605.986C390.721 606.108 389.323 606.381 388.503 606.655C387.682 606.929 386.102 607.597 385.008 608.145C383.913 608.722 382.819 609.178 382.576 609.178C382.333 609.209 381.087 608.175 379.841 606.929C378.169 605.287 376.954 604.375 375.282 603.585C374.036 602.977 372.121 602.338 371.027 602.156C369.933 602.004 368.292 601.943 367.38 602.065C366.468 602.186 365.009 602.521 364.189 602.825C363.368 603.129 361.788 603.949 360.724 604.679C359.63 605.409 358.232 606.685 357.624 607.506C356.985 608.327 355.891 610.121 355.162 611.458C354.159 613.313 353.612 614.012 352.791 614.407C351.94 614.863 351.302 614.924 349.448 614.772C347.716 614.62 346.713 614.711 345.345 615.106C344.342 615.38 342.974 615.927 342.306 616.322C341.637 616.717 340.361 617.812 339.479 618.724C338.628 619.666 337.504 621.277 336.987 622.341C336.501 623.375 335.954 625.138 335.771 626.293C335.589 627.6 335.559 628.938 335.741 630.063C335.893 631.036 336.258 632.434 336.501 633.194C336.774 633.954 336.987 634.927 336.987 635.383C336.987 635.869 336.835 636.538 336.622 636.903C336.44 637.298 335.65 638.301 334.89 639.152C334.13 640.034 333.097 641.524 332.61 642.496C332.124 643.5 331.547 645.324 331.304 646.57C330.939 648.424 330.908 649.275 331.182 651.13C331.395 652.619 331.911 654.2 332.641 655.69C333.37 657.179 334.373 658.578 335.528 659.703C336.744 660.919 338.02 661.8 339.631 662.56C340.938 663.138 342.336 663.807 342.731 663.989C343.126 664.202 343.582 664.627 343.734 664.962C343.917 665.296 344.099 666.725 344.16 668.154C344.22 669.583 344.494 671.407 344.768 672.258C345.071 673.079 345.588 674.264 345.953 674.842C346.348 675.419 347.047 676.27 347.503 676.696C347.989 677.152 348.931 677.851 349.6 678.277C350.269 678.672 351.576 679.25 352.487 679.493C353.399 679.766 354.828 680.07 355.679 680.162C356.833 680.314 357.441 680.253 358.262 679.827C358.839 679.554 359.934 679.31 360.693 679.31C361.453 679.31 362.456 679.523 362.973 679.797C363.49 680.04 365.131 681.226 366.62 682.411C368.109 683.597 369.963 684.874 370.723 685.238Z" fill="#E56A40"/>
<path d="M175.122 756.411C175.258 756.086 175.638 755.624 175.991 755.407C176.316 755.19 176.777 755 176.995 755C177.212 755 178.379 755.244 179.573 755.57C180.767 755.869 182.72 756.601 183.915 757.199C185.109 757.769 187.008 758.963 188.121 759.859C189.233 760.754 190.889 762.383 191.784 763.469C192.68 764.554 193.955 766.373 194.634 767.486C195.312 768.599 196.18 770.227 196.533 771.096C196.913 771.965 197.374 772.725 197.564 772.779C197.809 772.887 197.89 771.747 197.89 767.676C197.89 764.826 198.026 761.976 198.161 761.379C198.297 760.782 198.568 760.211 198.758 760.103C198.948 759.994 199.573 759.886 200.142 759.886C200.685 759.886 202.151 760.211 203.399 760.592C204.62 760.972 206.411 761.732 207.388 762.247C208.365 762.763 209.885 763.713 210.78 764.364C211.676 765.016 213.141 766.237 214.037 767.106C214.932 768.002 216.316 769.549 217.13 770.607C217.917 771.666 219.165 773.729 219.898 775.222C220.604 776.715 221.391 778.669 221.635 779.565C221.852 780.46 222.178 782.225 222.313 783.5C222.476 784.776 222.53 786.54 222.449 787.436C222.368 788.332 222.096 789.988 221.852 791.1C221.635 792.213 221.038 794.113 220.549 795.308C220.061 796.502 219.355 797.995 219.003 798.592C218.677 799.216 217.619 800.682 216.696 801.849C215.8 803.044 214.444 804.482 213.711 805.079C213.005 805.676 211.974 806.491 211.459 806.871C210.943 807.251 209.966 807.875 209.288 808.255C208.609 808.635 207.279 809.259 206.303 809.639C205.326 810.019 203.263 810.589 201.689 810.915C200.115 811.241 198.433 811.431 197.971 811.349C197.266 811.214 197.022 810.996 196.805 810.291C196.615 809.694 196.615 807.061 196.859 801.632C197.094 796.439 197.121 793.742 196.94 793.543C196.75 793.353 196.153 793.896 195.041 795.199C194.145 796.258 192.734 797.723 191.92 798.429C191.106 799.135 189.586 800.302 188.528 800.981C187.469 801.659 185.787 802.582 184.729 803.016C183.67 803.451 182.096 803.939 181.201 804.102C179.953 804.346 179.328 804.346 178.514 804.075C177.754 803.831 177.32 803.451 176.94 802.772C176.669 802.256 176.343 800.791 176.208 799.515C176.045 798.239 175.801 793.733 175.638 789.472C175.475 785.21 175.258 776.172 175.122 769.386C174.959 761.894 174.959 756.791 175.122 756.411Z" fill="#E56A40"/>
<path d="M325.14 92.4249C325.56 91.7254 326.094 90.9917 326.36 90.797C326.626 90.6023 327.387 90.1966 328.047 89.8978C328.728 89.5881 329.67 89.3237 330.139 89.3115C330.588 89.3104 331.435 89.4136 332.003 89.5867C332.56 89.7393 333.471 90.2582 333.995 90.7455C334.87 91.4949 335.262 92.1316 337.423 96.1864C338.761 98.6975 340.257 101.257 340.722 101.881C341.207 102.495 342.011 103.308 342.541 103.66C343.063 104.043 343.676 104.35 343.895 104.366C344.115 104.381 344.527 104.214 344.792 103.967C345.119 103.687 345.344 103.118 345.387 102.355C345.464 101.706 345.214 99.3547 344.886 97.1513C344.508 94.6571 344.348 92.5224 344.448 91.5704C344.551 90.7226 344.895 89.4826 345.273 88.805C345.662 88.0959 346.289 87.3389 346.791 86.9921C347.282 86.6246 348.076 86.2806 348.72 86.1492C349.301 86.0507 350.408 86.0951 351.175 86.2943C351.942 86.4936 353.039 86.966 353.644 87.3572C354.249 87.7485 355.22 88.5789 355.82 89.2102C356.668 90.1064 357.309 91.1123 358.802 93.9637C360.053 96.3101 361.037 98.4548 361.613 100.13C362.119 101.525 362.734 103.523 363.011 104.538C363.288 105.554 363.54 106.82 363.606 107.34C363.64 107.85 363.541 108.855 363.37 109.527C363.191 110.23 362.778 111.191 362.445 111.658C362.113 112.126 361.537 112.829 361.172 113.235C360.625 113.844 358.024 115.31 347.182 121.193C337.831 126.255 333.364 128.583 332.186 128.999C331.276 129.325 329.887 129.643 329.116 129.684C328.345 129.725 327.249 129.701 326.693 129.601C326.138 129.5 325.073 129.089 324.333 128.691C323.592 128.293 322.476 127.487 321.855 126.867C321.213 126.258 320.289 125.217 319.77 124.542C319.272 123.856 318.259 122.202 317.535 120.844C316.811 119.486 315.926 117.526 315.575 116.471C315.203 115.427 314.72 113.676 314.451 112.577C314.063 110.907 314.059 110.355 314.386 109.282C314.606 108.504 315.054 107.71 315.471 107.303C315.858 106.938 316.462 106.484 316.791 106.309C317.121 106.133 317.804 105.928 318.282 105.884C318.761 105.84 319.778 106.012 320.546 106.264C321.293 106.526 322.33 107.083 322.862 107.487C323.385 107.922 324.722 109.192 325.816 110.353C326.931 111.503 328.11 112.724 328.442 113.05C328.795 113.364 329.517 113.877 330.067 114.166C330.765 114.534 331.206 114.616 331.556 114.43C331.926 114.232 332.014 114.001 331.885 113.461C331.801 113.057 330.121 109.803 328.169 106.192C324.762 99.9467 324.586 99.5652 324.338 98.0588C324.19 97.1862 324.134 95.8418 324.229 95.0777C324.321 94.2093 324.66 93.2094 325.14 92.4249Z" fill="#ACE7E4"/>
<path d="M-6.26327 218.612C-5.50966 217.496 -4.13241 215.737 -3.17296 214.708C-2.23606 213.648 -0.128307 211.785 1.5476 210.568C3.16992 209.342 5.77953 207.779 7.31697 207.089C8.80082 206.391 11.4608 205.549 13.1842 205.246C15.3927 204.827 17.2654 204.795 19.5609 205.214C21.3827 205.503 24.0249 206.334 25.5249 207.094C27.0249 207.854 29.1225 209.175 30.1824 210.113C31.2734 211.027 32.7081 212.546 33.3845 213.477C34.0609 214.408 34.9935 216.149 35.4667 217.323C35.9174 218.466 36.4184 220.33 36.6237 221.462C36.7754 222.584 36.7772 224.48 36.6355 225.72C36.4403 226.953 36.4453 228.135 36.6031 228.352C36.7384 228.538 38.6225 228.26 40.7944 227.726C42.9128 227.183 45.9449 226.593 47.5357 226.434C49.1038 226.243 51.4052 226.279 52.6686 226.452C53.8784 226.616 55.6662 227.12 56.6108 227.572C57.5639 227.97 59.1596 228.992 60.1519 229.836C61.1753 230.658 62.6551 232.238 63.4668 233.356C64.301 234.504 65.3153 236.423 65.8081 237.82C66.2784 239.185 66.6298 241.301 66.6489 242.567C66.6143 243.825 66.3849 245.794 66.1756 246.941C65.9127 248.081 65.1582 250.762 64.4351 252.9C63.743 255.015 62.3735 258.286 61.3853 260.189C60.4283 262.069 58.7995 264.722 57.8427 266.081C56.8859 267.44 54.84 269.779 53.336 271.298C51.8094 272.786 49.7947 274.582 48.8637 275.258C47.9326 275.934 45.8647 277.199 44.2707 278.072C42.6993 278.976 40.1181 280.187 38.5666 280.792C37.0067 281.451 34.4652 282.064 32.9591 282.21C31.422 282.378 28.5933 282.204 26.6954 281.875C24.476 281.495 22.3611 280.803 20.6412 279.871C19.2033 279.066 17.306 277.694 16.4068 276.782C15.5076 275.87 14.245 274.132 13.5575 272.924C12.8699 271.717 12.0559 269.747 11.783 268.523C11.479 267.321 11.1812 265.214 11.1085 263.939C11.0133 262.633 11.1388 259.934 11.3768 257.912L11.3795 257.89C11.8074 254.327 11.8138 254.274 10.8174 254.335C10.2562 254.411 8.61186 254.562 7.13677 254.685C5.68423 254.839 3.17703 254.716 1.60911 254.385C0.0101605 254.076 -2.18084 253.344 -3.21559 252.768C-4.30393 252.183 -5.99543 250.898 -6.9933 249.916C-8.39992 248.567 -9.1214 247.574 -10.1187 245.548C-10.9752 243.846 -11.6115 241.795 -11.9685 239.541C-12.2693 237.626 -12.3411 234.786 -12.123 233.063C-11.9134 231.393 -11.3537 228.9 -10.8736 227.603C-10.416 226.275 -9.47854 224.172 -8.81511 222.931C-8.17423 221.659 -7.01688 219.728 -6.26327 218.612Z" fill="#ACE7E4"/>
<path d="M191.798 27.7827C192.006 26.135 192.215 24.6266 192.285 24.4177C192.354 24.1857 192.633 24 192.911 24C193.19 24 194.048 24.5106 194.814 25.0907C195.547 25.6689 196.963 26.8438 198.039 27.7372L198.178 27.8524C199.268 28.7574 201.449 30.6836 203.05 32.0992C205.208 34.0022 206.182 34.7216 206.879 34.884C207.389 35.0233 209.431 35.325 211.403 35.5803C213.375 35.8355 216.252 36.2068 217.783 36.4157C219.315 36.6014 220.892 36.8566 221.264 36.9495C221.681 37.0655 221.983 37.3208 222.029 37.5993C222.076 37.9242 220.591 39.4558 216.345 43.3778C210.66 48.669 210.591 48.7386 210.196 50.1078C209.964 50.8736 209.686 52.3821 209.547 53.4728C209.431 54.5635 209.222 56.0256 209.083 56.7218C208.967 57.418 208.711 59.0425 208.526 60.3188C208.34 61.5952 207.992 63.7535 207.76 65.1459C207.389 67.3273 207.296 67.629 206.879 67.6522C206.577 67.6522 204.767 65.8653 201.403 62.245C198.642 59.2745 196.067 56.4897 195.719 56.0488C195.347 55.6078 194.675 55.0277 194.234 54.7492C193.793 54.4707 192.378 53.9601 191.101 53.612C189.825 53.2639 187.366 52.5677 185.649 52.034C183.932 51.5234 181.287 50.6415 179.779 50.0846C178.294 49.5276 176.856 48.9242 176.6 48.785C176.345 48.6225 176.09 48.2976 176.02 48.0888C175.951 47.8567 176.067 47.4158 176.252 47.0909C176.438 46.766 177.157 46.1162 177.807 45.6289C178.48 45.1183 180.034 44.1436 181.241 43.4474C182.447 42.7512 184.675 41.5908 186.16 40.8714C187.668 40.152 189.269 39.2005 189.756 38.806C190.22 38.3883 190.777 37.6225 191.009 37.1119C191.357 36.3925 191.449 35.5803 191.449 33.4684C191.449 31.96 191.612 29.4072 191.798 27.7827Z" fill="#469E9E"/>
<path d="M228.79 716.418C228.216 718.025 227.241 719.631 226.609 719.918C225.921 720.32 225.002 720.205 223.912 719.631C222.994 719.172 218.746 715.787 214.499 712.173C210.252 708.501 205.029 703.854 202.848 701.846C200.725 699.839 199.003 697.716 199.003 697.2C198.946 696.626 199.692 695.421 200.668 694.446C201.586 693.528 205.087 691.061 208.473 688.996C211.859 686.93 215.59 684.578 216.852 683.718C218.058 682.8 219.206 681.538 219.32 680.849C219.435 680.103 220.526 674.366 221.731 668.056C222.879 661.745 224.141 656.008 224.486 655.262C224.888 654.459 225.634 654 226.38 654C227.126 654 229.192 655.205 230.971 656.696C232.808 658.188 239.408 663.753 245.607 669.031C254.043 676.145 256.97 679.013 256.97 679.989C257.028 680.677 256.683 681.538 256.282 681.882C255.88 682.283 251.288 683.947 246.123 685.611C239.121 687.906 236.366 689.053 235.505 690.143C234.759 691.061 234.013 693.184 233.497 695.88C233.095 698.232 232.119 703.166 231.316 706.78C230.512 710.395 229.364 714.755 228.79 716.418Z" fill="#388EBF"/>
</svg>
